%TF.GenerationSoftware,Altium Limited,Altium Designer,18.1.11 (251)*%
G04 Layer_Color=32896*
%FSLAX45Y45*%
%MOMM*%
%TF.FileFunction,Legend,Bot*%
%TF.Part,Single*%
G01*
G75*
%TA.AperFunction,NonConductor*%
%ADD42C,0.25000*%
%ADD43C,0.20000*%
%ADD44C,0.25400*%
D42*
X3574400Y4399940D02*
G03*
X3574400Y4399940I-12500J0D01*
G01*
X5113600Y4374941D02*
G03*
X5113600Y4374941I-12500J0D01*
G01*
D43*
X1422400Y1409700D02*
X1676400D01*
Y1600200D01*
Y3949700D01*
X1422400D01*
Y1409700D01*
X2476500Y2298700D02*
Y2451100D01*
X1968500D01*
Y2374900D01*
Y2298700D01*
X2476500D01*
Y2374900D02*
X2499360D01*
X2489200Y3035300D02*
Y3187700D01*
X1981200D01*
Y3111500D01*
Y3035300D01*
X2489200D01*
Y3111500D02*
X2512060D01*
X2489200Y3340100D02*
Y3492500D01*
X1981200D01*
Y3416300D01*
Y3340100D01*
X2489200D01*
Y3416300D02*
X2512060D01*
X2489200Y3657600D02*
Y3810000D01*
X1981200D01*
Y3733800D01*
Y3657600D01*
X2489200D01*
Y3733800D02*
X2512060D01*
X1981200D02*
X1958340D01*
Y3416300D02*
X1981200D01*
Y3111500D02*
X1958340D01*
X1968500Y2374900D02*
X1945640D01*
X3182600Y3506902D02*
Y4036898D01*
X4132600D01*
Y3506902D01*
X3182600D01*
Y3771900D02*
X3050098D01*
X3619500Y2832372D02*
X4127500D01*
Y2679972D01*
X3619500D01*
Y2756172D01*
Y2832372D01*
Y2756172D02*
X3596640D01*
X4038600Y2413000D02*
X4114800D01*
X4191000D01*
Y1905000D01*
X4038600D01*
Y2413000D01*
X4114800D02*
Y2435860D01*
X4127500Y2756172D02*
X4150360D01*
X4114800Y1905000D02*
Y1882140D01*
X4000500Y1115060D02*
Y1092200D01*
X3924300D02*
X4076700D01*
Y584200D01*
X4000500D01*
X3924300D01*
Y1092200D01*
X4000500Y584200D02*
Y561340D01*
X5092700Y609498D02*
Y3149498D01*
X5346700D01*
Y799998D01*
Y609498D01*
X5092700D01*
X5778500Y3505200D02*
Y3886200D01*
X4635500D01*
Y3505200D01*
X5778500D01*
X5262098Y4794943D02*
Y4919941D01*
Y4794943D02*
X4212102D01*
Y4919941D01*
X3725398Y4949937D02*
Y4809938D01*
X2675402D01*
Y4949937D01*
X4032595Y4036898D02*
Y3506902D01*
X4132600Y3771900D02*
X4265097D01*
D44*
X1269983Y1498592D02*
Y1600159D01*
X1320767Y1549375D02*
X1219200D01*
X2754739Y2383303D02*
X2856292Y2385008D01*
X2778849Y2459894D01*
X2781406Y2307564D01*
X2908347Y2309695D02*
X2958271Y2361324D01*
X2932883Y2360898D02*
X3009048Y2362176D01*
X3009900Y2311400D02*
X3007343Y2463729D01*
X2931178Y2462451D01*
X2906216Y2436636D01*
X2907069Y2385860D01*
X2932883Y2360898D01*
X3755850Y2895600D02*
X3730458Y2920992D01*
Y2946383D01*
X3755850Y2971775D01*
X3832025D01*
Y2920992D01*
X3806633Y2895600D01*
X3755850D01*
X3781242Y3022559D02*
X3832025Y2971775D01*
X3882809D02*
X3908201Y2946383D01*
X3984376D01*
Y2895600D02*
Y3047951D01*
X3908201D01*
X3882809Y3022559D01*
Y2971775D01*
Y2895600D02*
X3933593Y2946383D01*
X3781242Y3022559D02*
X3730458Y3047951D01*
X3975059Y2311318D02*
X3873492Y2209751D01*
X3848100D01*
Y2158967D02*
X3898883Y2108183D01*
Y2133575D02*
Y2057400D01*
X3848100D02*
X4000451D01*
Y2133575D01*
X3975059Y2158967D01*
X3924275D01*
X3898883Y2133575D01*
X4000451Y2209751D02*
Y2311318D01*
X3975059D01*
X3979339Y1523951D02*
Y1447775D01*
X3928555Y1473167D01*
X3903163D01*
X3877772Y1447775D01*
Y1396992D01*
X3903163Y1371600D01*
X3953947D01*
X3979339Y1396992D01*
X4030122Y1371600D02*
X4080906Y1422383D01*
X4055514D02*
X4131689D01*
Y1371600D02*
Y1523951D01*
X4055514D01*
X4030122Y1498559D01*
Y1447775D01*
X4055514Y1422383D01*
X3979339Y1523951D02*
X3877772D01*
X4876849Y2451305D02*
X4902241Y2476697D01*
X4876849Y2451305D02*
X5029200D01*
Y2425914D01*
Y2476697D01*
X5054592Y2527481D02*
Y2629048D01*
X5029200Y2705223D02*
X5003808Y2679831D01*
X5029200Y2705223D02*
Y2756007D01*
X5003808Y2781399D01*
X4902241D01*
X4876849Y2756007D01*
Y2705223D01*
X4902241Y2679831D01*
Y2832182D02*
X4876849Y2857574D01*
Y2933749D01*
X5029200D01*
Y2857574D01*
X5003808Y2832182D01*
X4902241D01*
X4927633Y2984533D02*
X5029200D01*
X4953025D01*
Y3086100D01*
X4927633D02*
X4876849Y3035317D01*
X4927633Y2984533D01*
Y3086100D02*
X5029200D01*
X5588025Y3949700D02*
X5562633Y3975092D01*
X5511849Y3949700D02*
X5461066D01*
X5486457D01*
Y4102051D01*
X5511849Y4076659D01*
X5562633D02*
X5588025Y4102051D01*
X5638808D01*
X5664200Y4076659D01*
Y3975092D01*
X5638808Y3949700D01*
X5588025D01*
X4013200Y4114800D02*
X3937025D01*
X3911633Y4140192D01*
Y4241759D01*
X3937025Y4267151D01*
X4013200D01*
Y4114800D01*
X3860849D02*
X3810066D01*
X3835457D01*
Y4267151D01*
X3860849Y4241759D01*
X2984277Y3517819D02*
X2908102Y3517723D01*
X2882742Y3492300D01*
X2882806Y3441516D01*
X2908229Y3416156D01*
X2984405Y3416252D01*
X2984468Y3365468D02*
X2984277Y3517819D01*
X2933621Y3416188D02*
X2882901Y3365341D01*
X2832118Y3365277D02*
X2730423Y3466717D01*
X2730392Y3492109D01*
X2755751Y3517533D01*
X2806535Y3517596D01*
X2831959Y3492236D01*
X2832118Y3365277D02*
X2730551Y3365150D01*
X2768674Y3200351D02*
X2743282Y3174959D01*
Y3149567D01*
X2768674Y3124175D01*
X2794066D01*
X2768674D01*
X2743282Y3098783D01*
Y3073392D01*
X2768674Y3048000D01*
X2819457D01*
X2844849Y3073392D01*
X2895633Y3048000D02*
X2946417Y3098783D01*
X2921025D02*
X2997200D01*
Y3048000D02*
Y3200351D01*
X2921025D01*
X2895633Y3174959D01*
Y3124175D01*
X2921025Y3098783D01*
X2844849Y3174959D02*
X2819457Y3200351D01*
X2768674D01*
X2717800Y3848100D02*
X2719117Y4000445D01*
X2642945Y4001104D01*
X2617334Y3975932D01*
X2616895Y3925151D01*
X2642067Y3899540D01*
X2718239Y3898882D01*
X2667457Y3899321D02*
X2616237Y3848978D01*
X2565455Y3849417D02*
X2514673Y3849856D01*
X2540064Y3849637D01*
X2541381Y4001982D01*
X2566553Y3976371D01*
X1346200Y3860800D02*
X1244633D01*
X1193849Y3810017D01*
X1244633Y3759233D01*
X1346200D01*
X1270025D01*
Y3860800D01*
X1346200Y3708449D02*
Y3632274D01*
X1320808Y3606882D01*
X1219241D01*
X1193849Y3632274D01*
Y3708449D01*
X1346200D01*
X1320808Y3556099D02*
X1346200Y3530707D01*
Y3479923D01*
X1320808Y3454531D01*
X1371592Y3403748D02*
Y3302181D01*
X1346200Y3226005D02*
X1320808Y3251397D01*
X1219241D01*
X1193849Y3226005D01*
Y3175222D01*
X1219241Y3149830D01*
X1320808D01*
X1346200Y3175222D01*
Y3226005D01*
X1219241Y3454531D02*
X1193849Y3479923D01*
Y3530707D01*
X1219241Y3556099D01*
X1320808D01*
X3581449Y5984900D02*
Y6137250D01*
X3505274D01*
X3479882Y6111858D01*
Y6061075D01*
X3505274Y6035683D01*
X3581449D01*
X3632233D02*
Y6137250D01*
X3733800D02*
Y6035683D01*
X3683017Y5984900D01*
X3632233Y6035683D01*
X3429099Y6111858D02*
X3403707Y6137250D01*
Y5984900D01*
X3378315D01*
X3429099D01*
X3479882D02*
X3530666Y6035683D01*
X4889631Y6011761D02*
X4991199D01*
X4889631Y6113328D01*
Y6138720D01*
X4915023Y6164112D01*
X4965807D01*
X4991199Y6138720D01*
X5041982D02*
Y6087936D01*
X5067374Y6062544D01*
X5143549D01*
X5194333D02*
Y6164112D01*
X5143549D02*
X5067374D01*
X5041982Y6138720D01*
Y6011761D02*
X5092766Y6062544D01*
X5143549Y6011761D02*
Y6164112D01*
X5295900D02*
Y6062544D01*
X5245117Y6011761D01*
X5194333Y6062544D01*
X5219683Y546059D02*
Y444492D01*
X5168900Y495275D02*
X5270467D01*
%TF.MD5,0ef3d76cfa1641abe2d0fef46f9cf88b*%
M02*
