%TF.GenerationSoftware,Altium Limited,Altium Designer,18.1.11 (251)*%
G04 Layer_Color=8388736*
%FSLAX45Y45*%
%MOMM*%
%TF.FileFunction,Soldermask,Top*%
%TF.Part,Single*%
G01*
G75*
%TA.AperFunction,ComponentPad*%
%ADD49C,1.70320*%
%ADD50C,1.72720*%
%ADD51R,1.72720X1.72720*%
%ADD52R,2.00320X2.00320*%
%ADD53C,2.00320*%
%ADD54O,1.20320X2.20320*%
%ADD55O,1.20320X2.20320*%
%ADD56R,2.00320X2.00320*%
%ADD57C,1.60320*%
%ADD58R,1.70320X1.70320*%
%ADD59C,2.50320*%
%ADD60R,1.70320X1.70320*%
%TA.AperFunction,ViaPad*%
%ADD61C,3.70320*%
D49*
X1549400Y1790700D02*
D03*
Y2044700D02*
D03*
Y2298700D02*
D03*
Y2552700D02*
D03*
Y2806700D02*
D03*
Y3060700D02*
D03*
Y3314700D02*
D03*
Y3568700D02*
D03*
Y3822700D02*
D03*
X2082800Y4572000D02*
D03*
X1828800D02*
D03*
X1574800D02*
D03*
X2082800Y5219700D02*
D03*
X1828800D02*
D03*
X1574800D02*
D03*
X4826000Y3695700D02*
D03*
X5219700Y3022498D02*
D03*
Y2768498D02*
D03*
Y2514498D02*
D03*
Y2260498D02*
D03*
Y2006498D02*
D03*
Y1752498D02*
D03*
Y1498498D02*
D03*
Y1244498D02*
D03*
Y990498D02*
D03*
X6540500Y635000D02*
D03*
X6794500Y889000D02*
D03*
Y1143000D02*
D03*
Y1397000D02*
D03*
Y1651000D02*
D03*
Y1905000D02*
D03*
Y2159000D02*
D03*
Y2413000D02*
D03*
Y2667000D02*
D03*
Y2921000D02*
D03*
Y3175000D02*
D03*
Y3429000D02*
D03*
Y3683000D02*
D03*
Y3937000D02*
D03*
Y4191000D02*
D03*
Y4445000D02*
D03*
Y4699000D02*
D03*
Y4953000D02*
D03*
Y5207000D02*
D03*
Y5461000D02*
D03*
X6540500D02*
D03*
Y5207000D02*
D03*
Y4953000D02*
D03*
Y4699000D02*
D03*
Y4445000D02*
D03*
Y4191000D02*
D03*
Y3937000D02*
D03*
Y3683000D02*
D03*
Y3429000D02*
D03*
Y3175000D02*
D03*
Y2921000D02*
D03*
Y2667000D02*
D03*
Y2413000D02*
D03*
Y2159000D02*
D03*
Y1905000D02*
D03*
Y1651000D02*
D03*
Y1397000D02*
D03*
Y1143000D02*
D03*
Y889000D02*
D03*
X5588000Y3695700D02*
D03*
X3467100Y1054100D02*
D03*
Y800100D02*
D03*
D50*
X1066800Y1117600D02*
D03*
Y1371600D02*
D03*
Y1625600D02*
D03*
Y2400300D02*
D03*
Y2654300D02*
D03*
Y3403600D02*
D03*
Y3657600D02*
D03*
X3479800Y2120800D02*
D03*
Y2374800D02*
D03*
X4724400Y1739900D02*
D03*
Y1993900D02*
D03*
Y787400D02*
D03*
X5854700D02*
D03*
X5842000Y1727200D02*
D03*
Y1981200D02*
D03*
Y2794000D02*
D03*
Y3048000D02*
D03*
X5791200Y4114800D02*
D03*
Y4368800D02*
D03*
Y4622800D02*
D03*
X4699000Y3060598D02*
D03*
Y2806598D02*
D03*
D51*
X1066800Y863600D02*
D03*
Y2146300D02*
D03*
Y3149600D02*
D03*
X3479800Y1866800D02*
D03*
X4724400Y533400D02*
D03*
Y1485900D02*
D03*
X5854700Y533400D02*
D03*
X5842000Y1473200D02*
D03*
Y2540000D02*
D03*
X4699000Y2552598D02*
D03*
X5791200Y4876800D02*
D03*
D52*
X3721100Y3238500D02*
D03*
X1612900Y5854700D02*
D03*
D53*
X3975100Y3238500D02*
D03*
X5842000Y5765800D02*
D03*
X1866900Y5854700D02*
D03*
D54*
X2299906Y2755900D02*
D03*
X2045906D02*
D03*
D55*
X2172906Y2755900D02*
D03*
D56*
X5842000Y5511800D02*
D03*
D57*
X1841500Y2374900D02*
D03*
X2603500D02*
D03*
X3492500Y2756172D02*
D03*
X4114800Y1778000D02*
D03*
X4000500Y1219200D02*
D03*
Y457200D02*
D03*
X4114800Y2540000D02*
D03*
X4254500Y2756172D02*
D03*
X2616200Y3733800D02*
D03*
Y3416300D02*
D03*
Y3111500D02*
D03*
X1854200Y3733800D02*
D03*
Y3416300D02*
D03*
Y3111500D02*
D03*
D58*
X1549400Y1536700D02*
D03*
X3467100Y546100D02*
D03*
X5219700Y736498D02*
D03*
X6794500Y635000D02*
D03*
D59*
X2907599Y3771900D02*
D03*
X4407596D02*
D03*
D60*
X1320800Y4572000D02*
D03*
Y5219700D02*
D03*
D61*
X711200Y101600D02*
D03*
Y6413500D02*
D03*
X7632700Y101600D02*
D03*
Y6413500D02*
D03*
%TF.MD5,02ddd4e605258569778fb94625a8253d*%
M02*
